<?xml version="1.0" standalone="no"?>
<svg xmlns:xlink="http://www.w3.org/1999/xlink" id="wave" style="transform:rotate(0deg); transition: 0.3s" viewBox="0 0 1440 360" version="1.1" xmlns="http://www.w3.org/2000/svg"><defs><linearGradient id="sw-gradient-0" x1="0" x2="0" y1="1" y2="0"><stop stop-color="rgba(244.034, 186.618, 168.178, 1)" offset="0%"/><stop stop-color="rgba(255, 207.267, 66.306, 1)" offset="100%"/></linearGradient></defs><path style="transform:translate(0, 0px); opacity:1" fill="url(#sw-gradient-0)" d="M0,0L18.5,0C36.9,0,74,0,111,12C147.7,24,185,48,222,96C258.5,144,295,216,332,240C369.2,264,406,240,443,216C480,192,517,168,554,162C590.8,156,628,168,665,162C701.5,156,738,132,775,114C812.3,96,849,84,886,96C923.1,108,960,144,997,180C1033.8,216,1071,252,1108,228C1144.6,204,1182,120,1218,72C1255.4,24,1292,12,1329,30C1366.2,48,1403,96,1440,144C1476.9,192,1514,240,1551,216C1587.7,192,1625,96,1662,54C1698.5,12,1735,24,1772,42C1809.2,60,1846,84,1883,96C1920,108,1957,108,1994,96C2030.8,84,2068,60,2105,66C2141.5,72,2178,108,2215,144C2252.3,180,2289,216,2326,210C2363.1,204,2400,156,2437,156C2473.8,156,2511,204,2548,240C2584.6,276,2622,300,2640,312L2658.5,324L2658.5,360L2640,360C2621.5,360,2585,360,2548,360C2510.8,360,2474,360,2437,360C2400,360,2363,360,2326,360C2289.2,360,2252,360,2215,360C2178.5,360,2142,360,2105,360C2067.7,360,2031,360,1994,360C1956.9,360,1920,360,1883,360C1846.2,360,1809,360,1772,360C1735.4,360,1698,360,1662,360C1624.6,360,1588,360,1551,360C1513.8,360,1477,360,1440,360C1403.1,360,1366,360,1329,360C1292.3,360,1255,360,1218,360C1181.5,360,1145,360,1108,360C1070.8,360,1034,360,997,360C960,360,923,360,886,360C849.2,360,812,360,775,360C738.5,360,702,360,665,360C627.7,360,591,360,554,360C516.9,360,480,360,443,360C406.2,360,369,360,332,360C295.4,360,258,360,222,360C184.6,360,148,360,111,360C73.8,360,37,360,18,360L0,360Z"/><defs><linearGradient id="sw-gradient-1" x1="0" x2="0" y1="1" y2="0"><stop stop-color="rgba(244.034, 151.157, 121.328, 1)" offset="0%"/><stop stop-color="rgba(246.31, 199.07, 94.644, 1)" offset="100%"/></linearGradient></defs><path style="transform:translate(0, 50px); opacity:0.9" fill="url(#sw-gradient-1)" d="M0,0L18.5,12C36.9,24,74,48,111,54C147.7,60,185,48,222,60C258.5,72,295,108,332,102C369.2,96,406,48,443,66C480,84,517,168,554,180C590.8,192,628,132,665,114C701.5,96,738,120,775,132C812.3,144,849,144,886,162C923.1,180,960,216,997,222C1033.8,228,1071,204,1108,174C1144.6,144,1182,108,1218,96C1255.4,84,1292,96,1329,114C1366.2,132,1403,156,1440,144C1476.9,132,1514,84,1551,54C1587.7,24,1625,12,1662,48C1698.5,84,1735,168,1772,198C1809.2,228,1846,204,1883,168C1920,132,1957,84,1994,60C2030.8,36,2068,36,2105,48C2141.5,60,2178,84,2215,78C2252.3,72,2289,36,2326,18C2363.1,0,2400,0,2437,18C2473.8,36,2511,72,2548,126C2584.6,180,2622,252,2640,288L2658.5,324L2658.5,360L2640,360C2621.5,360,2585,360,2548,360C2510.8,360,2474,360,2437,360C2400,360,2363,360,2326,360C2289.2,360,2252,360,2215,360C2178.5,360,2142,360,2105,360C2067.7,360,2031,360,1994,360C1956.9,360,1920,360,1883,360C1846.2,360,1809,360,1772,360C1735.4,360,1698,360,1662,360C1624.6,360,1588,360,1551,360C1513.8,360,1477,360,1440,360C1403.1,360,1366,360,1329,360C1292.3,360,1255,360,1218,360C1181.5,360,1145,360,1108,360C1070.8,360,1034,360,997,360C960,360,923,360,886,360C849.2,360,812,360,775,360C738.5,360,702,360,665,360C627.7,360,591,360,554,360C516.9,360,480,360,443,360C406.2,360,369,360,332,360C295.4,360,258,360,222,360C184.6,360,148,360,111,360C73.8,360,37,360,18,360L0,360Z"/></svg>